<svg width="1200" height="700" viewBox="0 0 1200 700" fill="none" xmlns="http://www.w3.org/2000/svg">
  <rect width="1200" height="700" rx="24" fill="#F8FAFC"/>
  <rect x="40" y="40" width="1120" height="620" rx="20" fill="white" stroke="#E2E8F0"/>
  <rect x="70" y="70" width="1060" height="64" rx="16" fill="#EFF6FF"/>
  <rect x="90" y="88" width="180" height="28" rx="8" fill="#2563EB"/>
  <rect x="320" y="88" width="88" height="24" rx="8" fill="#CBD5E1"/>
  <rect x="430" y="88" width="96" height="24" rx="8" fill="#CBD5E1"/>
  <rect x="930" y="84" width="140" height="34" rx="17" fill="#0F172A"/>
  <rect x="70" y="160" width="240" height="440" rx="16" fill="#F8FAFC" stroke="#E2E8F0"/>
  <rect x="330" y="160" width="800" height="440" rx="16" fill="#FFFFFF" stroke="#E2E8F0"/>
  <rect x="90" y="186" width="180" height="60" rx="12" fill="#DBEAFE"/>
  <rect x="90" y="272" width="180" height="60" rx="12" fill="#F1F5F9"/>
  <rect x="360" y="190" width="280" height="120" rx="16" fill="#EFF6FF"/>
  <rect x="660" y="190" width="220" height="120" rx="16" fill="#F8FAFC" stroke="#E2E8F0"/>
  <rect x="360" y="340" width="220" height="110" rx="16" fill="#FFFFFF" stroke="#E2E8F0"/>
  <rect x="600" y="340" width="220" height="110" rx="16" fill="#FFFFFF" stroke="#E2E8F0"/>
  <rect x="840" y="340" width="250" height="110" rx="16" fill="#FFFFFF" stroke="#E2E8F0"/>
  <rect x="360" y="470" width="700" height="90" rx="16" fill="#0F172A"/>
</svg>
